# xmcd CD database file generated by Grip 3.2.0
# 
# Track frame offsets:
#       221
#       21317
#       44862
#       66422
#       92211
#       105085
#       122676
#       145649
#       166277
#       196749
# 
# Disc length: 3176 seconds
# 
# Revision: 1
# Processed by: cddbd v1.5.2PL0 Copyright (c) Steve Scherf et al.
# Submitted via: Grip 3.2.0
# 
DISCID=860c660a
DTITLE=Dirk Freymuth - Celtic Music for Stress Relief
DYEAR=2007
DGENRE=Celtic
TTITLE0=The Flower of Sweet Strabane
TTITLE1=I am Asleep
TTITLE2=Give Me Your Hand
TTITLE3=Fhir An Bhata
TTITLE4=Kean O'Hara
TTITLE5=The Exile of Erin
TTITLE6=She Moved Through the Fair
TTITLE7=Carrickfergus
TTITLE8=An Carabhat
TTITLE9=My Lagan Love
EXTD=YEAR: 2007
EXTT0=
EXTT1=
EXTT2=
EXTT3=
EXTT4=
EXTT5=
EXTT6=
EXTT7=
EXTT8=
EXTT9=
PLAYORDER=
